<?xml version="1.0" standalone="no"?>
<!DOCTYPE svg PUBLIC "-//W3C//DTD SVG 20010904//EN"
 "http://www.w3.org/TR/2001/REC-SVG-20010904/DTD/svg10.dtd">
<svg version="1.0" xmlns="http://www.w3.org/2000/svg"
 width="809.000000pt" height="720.000000pt" viewBox="0 0 809.000000 720.000000"
 preserveAspectRatio="xMidYMid meet">

<g transform="translate(0.000000,720.000000) scale(0.100000,-0.100000)"
fill="#000000" stroke="none">
<path d="M1993 7185 c-261 -33 -490 -103 -728 -220 -253 -124 -444 -263 -633
-460 -340 -352 -541 -777 -613 -1295 -22 -153 -17 -525 8 -690 54 -344 143
-636 299 -974 387 -840 1138 -1706 2185 -2521 361 -281 897 -651 1314 -907
161 -99 196 -117 225 -115 76 7 835 503 1305 852 1100 819 1873 1656 2323
2515 474 904 539 1813 184 2553 -177 369 -454 685 -797 910 -115 75 -361 196
-491 240 -393 136 -777 160 -1195 77 -502 -100 -901 -343 -1173 -714 -46 -62
-70 -101 -146 -229 l-16 -27 -23 42 c-331 607 -953 956 -1731 973 -124 3 -222
-1 -297 -10z m585 -75 c647 -95 1130 -422 1407 -953 30 -57 45 -77 60 -77 15
0 30 20 60 77 277 532 754 855 1410 954 166 25 438 30 585 10 742 -99 1374
-548 1696 -1206 75 -154 115 -261 154 -411 87 -335 100 -684 39 -1046 -224
-1336 -1390 -2739 -3343 -4023 -336 -221 -574 -365 -601 -365 -27 0 -265 144
-601 365 -1080 710 -1929 1464 -2509 2230 -445 587 -730 1194 -830 1770 -135
778 66 1497 562 2015 193 203 387 344 638 465 261 126 501 192 805 219 89 8
338 -5 468 -24z"/>
</g>
</svg>
